<?xml version="1.0" encoding="utf-8"?>
<!-- Generator: Adobe Illustrator 27.2.0, SVG Export Plug-In . SVG Version: 6.00 Build 0)  -->
<svg version="1.1" id="Layer_1" xmlns="http://www.w3.org/2000/svg" xmlns:xlink="http://www.w3.org/1999/xlink" x="0px" y="0px"
	 viewBox="0 0 144.2 113.7" style="enable-background:new 0 0 144.2 113.7;" xml:space="preserve">
<style type="text/css">
	.st0{fill:#0E387A;}
	.st1{fill:#9FAFCA;}
	.st2{font-family:'Roboto-Bold';}
	.st3{font-size:36.22px;}
</style>
<g id="Layer_2_00000112592605852085281040000009330433772130499768_">
	<g>
		<path class="st0" d="M70.7,45.3c-17.3,0-33.5,3.2-47.2,8.7l9-33.5l46,25C75.9,45.4,73.3,45.3,70.7,45.3z"/>
		<path class="st0" d="M108.2,50.6c-3.9-1.2-8.1-2.2-12.3-3h0L57.4,24.9L70.5,3C70.5,3,108.2,50.6,108.2,50.6z"/>
		<path class="st0" d="M107.6,15.4l13.2,39.8c-1-0.5-2.1-0.9-3.1-1.3h0l-19.6-29L107.6,15.4z"/>
	</g>
	<path class="st1" d="M144.2,74.6C123,66.9,96.3,62.3,67.3,62.3c-24.8,0-47.9,3.3-67.3,9.1C2.8,69.1,5.9,67,9.2,65
		c4.5-2.7,9.4-5.1,14.6-7.2c13.5-5.3,29.5-8.4,46.5-8.4c5.6,0,11.1,0.3,16.4,1c7,0.8,13.6,2.2,19.9,4l0,0c1.8,0.5,3.5,1.1,5.2,1.7
		c3.1,1.1,6.1,2.2,9,3.5c0.3,0.1,0.6,0.3,0.9,0.4c5.1,2.3,9.8,5,14,7.9C138.9,70,141.6,72.2,144.2,74.6L144.2,74.6z"/>
</g>
<g id="Layer_1_00000078742872684759850280000005657174988244564144_">
	<text transform="matrix(1 0 0 1 38.58 99.135)" class="st0 st2 st3">TEC</text>
</g>
</svg>
