<?xml version="1.0" encoding="UTF-8"?>
<svg id="Layer_2" data-name="Layer 2" xmlns="http://www.w3.org/2000/svg" viewBox="0 0 144.18 113.69">
  <defs>
    <style>
      .cls-1 {
        fill: #9fafca;
      }

      .cls-2 {
        fill: #0e387a;
      }
    </style>
  </defs>
  <g>
    <path class="cls-2" d="m70.74,42.37c-17.34,0-33.52,3.17-47.21,8.68l8.97-33.5,45.96,25.04c-2.54-.15-5.12-.22-7.72-.22Z"/>
    <path class="cls-2" d="m108.18,47.65c-3.95-1.18-8.07-2.18-12.31-2.97h-.02l-38.49-22.74L70.52,0l37.66,47.65Z"/>
    <path class="cls-2" d="m107.62,12.43l13.19,39.82c-1.03-.45-2.06-.89-3.12-1.3h-.01l-19.56-29.01,9.5-9.51Z"/>
  </g>
  <path class="cls-1" d="m144.18,71.67c-21.13-7.72-47.84-12.33-76.9-12.33-24.8,0-47.9,3.35-67.28,9.14,2.8-2.31,5.86-4.49,9.17-6.48,4.46-2.73,9.36-5.14,14.62-7.21,13.52-5.34,29.46-8.42,46.51-8.42,5.61,0,11.12.33,16.44.98,6.97.83,13.63,2.18,19.93,4h0c1.78.51,3.54,1.06,5.24,1.65,3.13,1.06,6.14,2.24,9.03,3.53.31.13.61.27.91.4,5.08,2.33,9.77,4.99,13.98,7.94,3.04,2.12,5.82,4.4,8.34,6.8Z"/>
</svg>