<?xml version="1.0" standalone="no"?>
<!DOCTYPE svg PUBLIC "-//W3C//DTD SVG 20010904//EN"
 "http://www.w3.org/TR/2001/REC-SVG-20010904/DTD/svg10.dtd">
<svg version="1.0" xmlns="http://www.w3.org/2000/svg"
 width="1152.000000pt" height="1152.000000pt" viewBox="0 0 1152.000000 1152.000000"
 preserveAspectRatio="xMidYMid meet">
<metadata>
Created by potrace 1.14, written by Peter Selinger 2001-2017
</metadata>
<g transform="translate(0.000000,1152.000000) scale(0.100000,-0.100000)"
fill="#000000" stroke="none">
<path d="M5545 10154 c-86 -146 -94 -159 -170 -286 -27 -46 -51 -89 -53 -95
-2 -7 -8 -13 -13 -13 -5 0 -9 -4 -9 -8 0 -7 -60 -111 -111 -192 -69 -112 -289
-485 -289 -491 0 -5 -4 -9 -10 -9 -5 0 -10 -5 -10 -11 0 -6 -13 -31 -30 -56
-16 -24 -30 -46 -30 -47 0 -2 -49 -86 -110 -186 -61 -101 -110 -187 -110 -191
0 -4 -5 -9 -12 -11 -9 -3 163 -118 178 -118 3 0 30 -16 60 -35 30 -19 56 -35
57 -35 2 0 56 -31 121 -70 64 -38 121 -70 126 -70 6 0 10 -4 10 -9 0 -5 8 -11
18 -15 9 -3 31 -15 47 -26 17 -11 41 -26 55 -33 21 -10 284 -166 341 -202 9
-5 34 -20 55 -32 54 -30 277 -161 290 -170 11 -8 34 -22 93 -55 20 -11 86 -50
146 -86 61 -36 143 -85 183 -109 40 -23 77 -43 82 -43 6 0 10 -4 10 -10 0 -5
4 -10 9 -10 4 0 76 -40 159 -90 83 -49 155 -90 161 -90 6 0 11 -4 11 -10 0 -5
4 -10 9 -10 5 0 38 -18 72 -39 35 -22 87 -52 114 -67 28 -14 57 -32 66 -40 8
-8 21 -14 27 -14 7 0 12 -4 12 -10 0 -5 6 -10 14 -10 8 0 22 -8 32 -17 10 -10
18 -16 18 -14 1 3 20 -8 43 -22 24 -15 44 -27 46 -27 6 0 271 -158 284 -170 7
-5 14 -10 17 -10 3 0 27 -13 55 -29 27 -16 64 -32 83 -35 28 -4 180 -36 253
-52 11 -2 33 -7 49 -10 16 -2 32 -7 36 -9 3 -2 17 -6 31 -9 82 -16 154 -33
154 -36 0 -2 18 -6 64 -15 19 -3 38 -8 43 -11 5 -3 21 -8 36 -10 15 -3 67 -17
116 -31 48 -14 94 -26 102 -27 7 -1 17 -5 20 -9 4 -4 13 -7 21 -7 17 0 -3 40
-42 85 -15 17 -39 45 -53 64 -15 19 -38 48 -52 65 -14 17 -28 36 -32 41 -7 8
-59 75 -118 149 -8 10 -23 27 -32 38 -10 10 -18 20 -18 23 0 3 -178 230 -324
411 -23 28 -52 66 -66 84 -74 97 -234 295 -241 298 -5 2 -9 8 -9 13 0 6 -21
36 -47 67 -27 32 -61 75 -78 96 -33 43 -199 252 -218 276 -7 8 -26 33 -42 55
-16 22 -38 47 -47 56 -10 9 -18 20 -18 25 0 5 -8 17 -17 25 -27 24 -53 58 -53
68 0 5 -4 11 -8 13 -6 2 -83 96 -135 163 -4 5 -17 21 -28 35 -11 14 -31 39
-44 55 -13 17 -79 100 -147 186 -67 86 -134 171 -148 189 -14 18 -33 42 -42
54 -10 11 -27 32 -38 46 -26 33 -226 286 -265 336 -16 21 -42 53 -57 70 -16
17 -28 34 -28 38 0 6 -23 35 -47 61 -12 13 -200 248 -243 305 -14 18 -32 41
-40 50 -29 35 -45 56 -74 95 -16 22 -34 45 -40 50 -6 6 -27 31 -46 57 -19 26
-39 47 -45 47 -5 0 -46 -61 -90 -135z"/>
<path d="M8218 8928 l-378 -380 20 -28 c11 -16 20 -33 20 -38 0 -6 4 -12 8
-14 5 -1 55 -73 112 -158 57 -85 108 -157 112 -158 5 -2 6 -8 2 -13 -3 -5 -1
-9 5 -9 5 0 13 -9 16 -20 3 -11 12 -26 19 -32 6 -7 63 -89 126 -183 62 -93
116 -172 119 -175 3 -3 12 -17 20 -32 8 -15 22 -37 33 -47 10 -11 18 -22 18
-25 0 -2 18 -30 40 -62 79 -114 175 -259 179 -269 2 -5 7 -12 11 -15 4 -3 67
-95 140 -205 73 -110 137 -201 142 -203 4 -2 8 -9 8 -16 0 -7 9 -21 20 -31 11
-10 20 -22 20 -26 0 -4 15 -29 33 -54 17 -26 37 -55 42 -65 6 -10 17 -26 25
-35 8 -9 19 -25 25 -35 11 -20 105 -159 117 -175 5 -5 36 -52 71 -104 39 -59
71 -97 87 -102 14 -5 33 -14 42 -19 10 -6 22 -10 27 -10 5 0 20 -4 33 -9 13
-5 27 -9 32 -9 5 0 12 -4 15 -10 6 -8 71 -34 71 -28 0 5 -101 310 -109 331 -5
11 -27 79 -51 150 -23 72 -44 137 -47 145 -3 8 -7 20 -8 26 -2 6 -15 46 -30
89 -15 44 -29 86 -31 94 -7 30 -46 146 -53 161 -4 8 -22 62 -40 120 -18 58
-37 114 -41 125 -17 42 -23 61 -27 85 -2 13 -8 29 -12 35 -4 5 -14 33 -21 60
-7 28 -17 54 -21 59 -5 6 -9 16 -9 22 0 7 -5 25 -12 41 -6 15 -12 33 -12 38
-1 6 -48 149 -105 319 -56 170 -104 316 -106 325 -2 9 -22 67 -44 129 -22 61
-38 112 -35 112 2 0 -2 13 -11 29 -8 17 -17 38 -18 48 -2 10 -7 25 -10 33 -14
37 -49 144 -52 159 -2 9 -4 17 -5 19 -2 1 -4 7 -5 12 -1 6 -4 12 -5 15 -1 3
-3 8 -5 13 -1 4 -4 14 -8 22 -16 41 -41 126 -39 133 1 4 -2 7 -6 7 -5 0 -9 6
-9 13 0 12 -63 208 -66 206 -1 -1 -172 -172 -379 -381z"/>
<path d="M2592 8888 c0 -7 -8 -40 -17 -73 -9 -33 -19 -67 -21 -75 -3 -13 -9
-38 -30 -115 -3 -11 -7 -27 -9 -35 -2 -8 -4 -15 -5 -15 -2 0 -7 -18 -19 -70
-16 -68 -51 -199 -58 -215 -3 -8 -7 -20 -8 -25 -10 -47 -78 -301 -94 -353 -5
-18 -10 -36 -11 -40 -1 -14 -21 -87 -27 -102 -3 -8 -6 -18 -5 -22 1 -3 -10
-44 -24 -90 -13 -45 -26 -92 -28 -103 -2 -11 -22 -87 -44 -170 -44 -163 -66
-243 -117 -435 -19 -69 -41 -152 -50 -185 -10 -33 -18 -67 -20 -75 -2 -8 -9
-35 -16 -60 -7 -25 -14 -49 -15 -55 -1 -5 -14 -53 -29 -105 -14 -52 -28 -108
-31 -125 -3 -16 -10 -38 -15 -47 -5 -10 -8 -18 -5 -18 3 0 1 -13 -4 -30 l-9
-30 30 15 c16 9 32 16 36 16 11 2 32 9 73 26 19 8 67 26 105 39 39 14 77 28
85 31 8 3 22 7 30 9 8 2 23 7 35 12 31 15 110 42 135 47 12 2 28 9 36 16 8 6
14 9 14 6 0 -3 33 5 73 19 39 13 73 24 75 24 1 -1 28 7 60 16 31 10 60 18 65
20 4 1 8 2 10 3 1 2 13 4 27 7 14 2 36 8 50 14 23 9 133 38 173 45 9 2 22 7
28 10 5 4 20 8 32 10 12 1 54 10 92 20 39 9 81 19 94 21 14 3 28 7 32 9 4 3
24 7 45 11 22 3 66 12 99 19 33 8 71 16 85 19 14 3 36 8 50 11 14 3 40 8 59
11 18 3 43 8 55 10 11 2 35 6 51 9 17 3 41 7 55 10 14 3 41 7 60 10 19 3 61
10 93 16 33 6 73 12 90 14 18 2 46 5 62 8 17 3 53 9 80 12 28 4 59 8 70 9 11
2 47 6 80 10 33 4 74 9 90 11 17 2 59 6 95 10 36 3 81 8 100 11 19 3 73 7 120
10 47 3 105 7 130 9 226 25 900 36 1263 22 81 -3 145 -3 143 1 -2 4 -22 16
-43 27 -21 11 -40 22 -43 25 -3 3 -30 17 -60 32 -73 36 -244 130 -250 137 -3
3 -10 7 -15 8 -6 1 -42 19 -80 41 -39 21 -99 55 -135 74 -36 19 -87 47 -115
63 -73 40 -162 88 -230 125 -89 48 -179 97 -280 153 -49 28 -117 64 -150 82
-119 63 -211 114 -275 149 -36 20 -81 44 -100 54 -19 9 -37 19 -40 22 -3 3
-25 15 -50 28 -117 61 -146 77 -162 91 -10 8 -18 10 -18 6 0 -4 -8 -2 -17 7
-10 8 -47 29 -83 48 -36 18 -67 36 -70 40 -5 6 -40 21 -50 21 -3 0 -12 6 -20
13 -8 6 -33 21 -55 33 -22 11 -58 31 -80 43 -22 13 -83 45 -135 73 -52 28
-108 59 -125 68 -16 10 -46 27 -65 37 -40 21 -169 91 -250 135 -30 17 -77 43
-105 57 -67 36 -161 87 -333 182 -78 43 -146 78 -150 78 -4 0 -18 9 -32 20
-29 23 -36 24 -38 8z"/>
<path d="M5207 6594 c-3 -4 -44 -8 -89 -9 -83 -3 -281 -14 -348 -21 -19 -1
-73 -5 -120 -9 -46 -3 -95 -7 -108 -10 -21 -4 -85 -10 -207 -21 -16 -1 -30 -3
-30 -4 0 -2 -18 -4 -40 -5 -22 -2 -40 -4 -40 -5 0 -2 -11 -3 -25 -5 -24 -1
-119 -14 -150 -20 -8 -2 -37 -6 -65 -9 -27 -4 -88 -14 -135 -22 -47 -8 -97
-17 -112 -19 -32 -5 -145 -24 -173 -30 -11 -3 -42 -10 -70 -16 -27 -5 -59 -12
-70 -14 -92 -17 -120 -23 -120 -25 0 -2 -28 -8 -65 -15 -14 -2 -54 -12 -90
-20 -87 -22 -101 -25 -130 -31 -14 -2 -32 -7 -40 -11 -8 -3 -22 -7 -30 -9 -8
-2 -64 -17 -125 -34 -60 -17 -119 -33 -130 -35 -11 -3 -56 -16 -99 -30 -43
-14 -82 -25 -87 -25 -4 0 -20 -5 -36 -12 -15 -7 -32 -13 -38 -13 -5 -1 -17 -5
-25 -8 -8 -3 -80 -28 -160 -55 -80 -28 -172 -60 -205 -73 -33 -13 -62 -24 -65
-24 -6 -2 -30 -11 -113 -46 -37 -15 -75 -29 -85 -31 -9 -2 -19 -5 -22 -8 -3
-3 -57 -28 -120 -55 -63 -26 -165 -72 -227 -102 -61 -29 -116 -53 -121 -53 -6
0 -12 -3 -14 -7 -1 -5 -48 -30 -103 -58 -86 -43 -258 -135 -305 -164 -8 -5
-69 -42 -135 -82 -212 -127 -449 -291 -620 -427 -44 -35 -87 -67 -95 -72 -33
-19 -1 -16 70 7 41 13 84 25 95 28 11 2 60 16 110 30 50 14 99 27 110 29 11 3
20 5 20 6 0 1 7 3 15 5 80 17 276 72 278 78 2 4 8 5 12 2 5 -3 46 4 92 16 46
11 92 22 103 24 11 1 27 5 35 8 8 4 27 9 43 12 15 3 38 7 52 10 14 3 35 7 48
9 12 2 61 14 109 25 48 12 91 21 95 20 4 -1 11 0 16 1 15 5 53 13 117 25 8 2
35 8 60 13 25 6 62 13 84 16 21 4 41 8 45 10 4 3 27 7 51 10 25 3 56 8 70 11
14 3 39 7 55 10 17 2 41 6 55 9 14 4 39 8 55 11 17 2 44 7 60 10 17 4 44 8 60
10 17 2 48 7 70 11 22 4 55 8 73 8 17 1 32 4 32 7 0 3 6 6 13 6 16 0 115 14
141 19 12 2 39 7 61 9 60 8 117 16 145 20 14 3 45 7 70 10 25 3 61 7 80 10 19
3 55 7 80 10 25 3 61 7 80 10 19 2 60 7 90 10 30 3 69 8 85 10 45 6 156 17
195 20 19 1 64 6 100 10 36 4 83 9 105 10 36 3 75 6 245 20 122 11 239 18 307
19 40 1 73 3 73 6 0 3 17 6 38 6 20 1 105 5 187 8 223 11 373 16 647 20 136 3
252 7 258 11 5 3 10 1 10 -5 0 -7 6 -8 18 -1 10 5 24 6 32 1 7 -4 19 -6 26 -3
23 9 115 9 121 0 2 -4 10 -3 17 2 7 6 15 8 19 5 7 -8 77 -11 77 -4 0 3 12 5
28 4 15 -1 27 -3 27 -4 0 -6 78 -4 81 2 3 5 10 5 16 2 6 -4 90 -8 187 -10 169
-2 332 -8 566 -20 175 -8 411 -22 495 -29 112 -9 216 -18 255 -20 22 -2 40 -4
40 -5 0 -1 25 -3 55 -5 30 -1 80 -6 110 -9 30 -3 82 -8 115 -11 69 -6 136 -14
180 -21 17 -2 57 -6 90 -9 33 -3 78 -7 100 -10 79 -9 110 -14 110 -15 0 -1 20
-3 44 -5 24 -2 58 -6 75 -9 17 -3 54 -8 81 -12 28 -3 67 -9 88 -14 24 -5 37
-4 37 2 0 7 4 7 13 0 11 -9 35 -13 137 -27 19 -3 44 -7 56 -9 12 -2 45 -7 74
-11 29 -4 62 -9 74 -11 12 -3 39 -7 61 -10 22 -3 46 -7 54 -10 8 -3 30 -7 50
-10 20 -3 60 -10 89 -15 29 -6 67 -12 85 -15 18 -2 43 -6 57 -9 25 -5 167 -33
205 -40 51 -10 72 -14 95 -20 33 -8 57 -13 104 -20 21 -3 46 -10 56 -15 9 -5
19 -7 22 -5 2 3 30 -2 61 -10 31 -8 69 -17 84 -20 67 -12 295 -65 303 -70 4
-2 18 -6 33 -9 15 -4 38 -8 52 -11 14 -3 67 -17 118 -31 50 -14 103 -27 115
-30 33 -7 118 -30 175 -47 26 -8 47 -13 47 -11 0 2 17 -3 38 -11 20 -8 46 -16
57 -18 22 -4 133 -37 330 -100 72 -23 132 -42 135 -42 3 -1 12 -4 20 -8 14 -5
210 -70 220 -72 3 -1 18 -7 33 -13 15 -7 40 -15 55 -18 15 -4 32 -10 37 -14 6
-4 21 -10 35 -13 19 -5 10 8 -40 53 -94 87 -100 91 -159 140 -30 25 -65 55
-79 67 -13 12 -49 41 -80 65 -32 24 -59 45 -62 48 -3 3 -30 23 -60 45 -30 22
-59 43 -65 48 -68 57 -484 327 -503 327 -6 0 -12 4 -14 8 -2 4 -30 23 -63 41
-33 19 -76 43 -95 54 -19 11 -60 33 -90 49 -30 17 -61 35 -67 40 -7 6 -13 8
-13 4 0 -3 -22 8 -50 24 -27 16 -50 27 -50 23 0 -3 -8 0 -17 8 -26 22 -286
144 -328 155 -14 3 -25 10 -25 15 0 5 -7 9 -15 9 -8 0 -40 12 -72 27 -32 15
-60 28 -63 28 -3 1 -18 7 -35 14 -38 15 -47 18 -60 20 -5 1 -19 8 -30 15 -11
7 -51 23 -90 36 -38 13 -74 27 -80 30 -5 4 -44 17 -85 31 -41 13 -78 28 -81
32 -3 5 -9 8 -13 7 -4 -1 -50 13 -104 31 -53 18 -100 34 -104 35 -5 1 -10 3
-13 4 -3 1 -9 4 -15 5 -5 1 -11 3 -12 5 -2 1 -10 3 -18 5 -8 1 -46 13 -85 25
-38 12 -83 26 -100 30 -16 5 -79 22 -140 40 -60 17 -125 33 -144 36 -19 2 -39
8 -45 12 -6 3 -22 8 -36 10 -14 1 -36 7 -50 12 -14 5 -36 11 -50 14 -14 2 -56
12 -95 21 -38 9 -81 18 -95 20 -14 2 -52 11 -85 19 -85 20 -126 28 -157 30
-16 0 -28 5 -28 9 0 5 -9 5 -20 2 -11 -3 -20 -3 -20 2 0 4 -10 8 -22 9 -56 2
-98 9 -98 14 0 3 -10 6 -22 6 -13 1 -41 4 -63 8 -22 4 -55 9 -74 12 -19 2 -46
6 -60 9 -39 6 -113 17 -141 20 -87 11 -128 17 -149 20 -14 2 -54 7 -90 10 -36
4 -77 8 -91 10 -14 2 -54 7 -90 10 -36 3 -90 8 -120 11 -123 11 -277 22 -464
30 -201 10 -849 11 -868 2 -9 -5 -18 -3 -20 3 -2 6 -7 7 -11 3z"/>
</g>
</svg>
