<?xml version="1.0" encoding="utf-8"?>
<!-- Generator: Adobe Illustrator 27.2.0, SVG Export Plug-In . SVG Version: 6.00 Build 0)  -->
<svg version="1.1" id="Layer_1" xmlns="http://www.w3.org/2000/svg" xmlns:xlink="http://www.w3.org/1999/xlink" x="0px" y="0px"
	 viewBox="0 0 144.2 121" style="enable-background:new 0 0 144.2 121;" xml:space="preserve">
<style type="text/css">
	.st0{fill:#FFFFFF;}
	.st1{font-family:'Roboto-Bold';}
	.st2{font-size:36.22px;}
</style>
<g id="Layer_2_00000034781656286093049290000006299475755382567832_">
	<g>
		<path d="M70.7,48.2c-17.3,0-33.5,3.2-47.2,8.7l9-33.5l46,25C75.8,48.2,73.3,48.2,70.7,48.2z"/>
		<path d="M108.1,53.4c-3.9-1.2-8.1-2.2-12.3-3h0L57.3,27.7L70.4,5.8C70.4,5.8,108.1,53.4,108.1,53.4z"/>
		<path d="M107.5,18.2L120.7,58c-1-0.4-2.1-0.9-3.1-1.3h0L98,27.7L107.5,18.2z"/>
	</g>
	<g>
		<path class="st0" d="M139.7,74.9c-21.2-7-46.1-10.7-72.4-10.7c-22.1,0-43.6,2.7-62.5,7.8c1.6-1.1,3.2-2.2,4.9-3.2
			c4.4-2.7,9.3-5.1,14.5-7.1C38,56,54,53.2,70.3,53.2c5.5,0,11,0.3,16.3,1c6.8,0.8,13.5,2.2,19.8,4l0.2,0c1.8,0.5,3.5,1,5.1,1.6
			c3.1,1.1,6.1,2.2,8.9,3.5c0.2,0.1,0.9,0.4,0.9,0.4c5,2.3,9.7,4.9,13.8,7.8C136.8,72.5,138.3,73.7,139.7,74.9L139.7,74.9z"/>
		<path d="M70.3,54.2c5.5,0,10.9,0.3,16.2,1c6.8,0.8,13.4,2.1,19.6,3.9l0.3,0.1l0,0c1.7,0.5,3.3,1,4.9,1.5c3.1,1,6,2.2,8.9,3.5
			c0.2,0.1,0.3,0.1,0.5,0.2l0.3,0.2c4.9,2.2,9.4,4.8,13.5,7.6c-20-5.9-43-9-67.2-9c-20,0-39.5,2.2-57,6.3c4.3-2.6,9.1-5,14.2-7
			C38.2,57,54.1,54.2,70.3,54.2 M70.3,52.2c-17,0-33,3.1-46.5,8.4c-5.3,2.1-10.2,4.5-14.6,7.2c-3.3,2-6.4,4.2-9.2,6.5
			c19.4-5.8,42.5-9.1,67.3-9.1c29.1,0,55.8,4.6,76.9,12.3c-2.5-2.4-5.3-4.7-8.3-6.8c-4.2-2.9-8.9-5.6-14-7.9
			c-0.3-0.1-0.6-0.3-0.9-0.4c-2.9-1.3-5.9-2.5-9-3.5c-1.7-0.6-3.5-1.1-5.2-1.7h0c-6.3-1.8-12.9-3.2-19.9-4
			C81.4,52.5,75.9,52.2,70.3,52.2L70.3,52.2L70.3,52.2z"/>
	</g>
</g>
<g id="Layer_1_00000083072301308661505480000010838587930908273815_">
	<text transform="matrix(1 0 0 1 38.52 108.965)" class="st1 st2">TEC</text>
</g>
</svg>
